<svg width="46" height="47" viewBox="0 0 46 47" fill="none" xmlns="http://www.w3.org/2000/svg">
<path d="M18.457 42.5749L16.9313 44.1184C16.7083 44.344 16.4436 44.5229 16.1523 44.645C15.8609 44.7671 15.5486 44.8299 15.2332 44.8299C14.9178 44.8299 14.6055 44.7671 14.3142 44.645C14.0228 44.5229 13.7581 44.344 13.5352 44.1184L2.57695 33.0375C2.35396 32.8121 2.17706 32.5445 2.05637 32.25C1.93568 31.9554 1.87357 31.6398 1.87357 31.3209C1.87357 31.0021 1.93568 30.6864 2.05637 30.3919C2.17706 30.0974 2.35396 29.8297 2.57695 29.6044L4.10414 28.0609L18.457 42.5749ZM43.3582 13.9642L32.3993 2.88334C31.942 2.44195 31.3341 2.19568 30.702 2.19568C30.0698 2.19568 29.4619 2.44195 29.0046 2.88334L27.4774 4.42752L41.831 18.9408L43.3582 17.3974C43.5813 17.172 43.7583 16.9043 43.879 16.6097C43.9998 16.3151 44.0619 15.9993 44.0619 15.6804C44.0619 15.3615 43.9998 15.0457 43.879 14.7511C43.7583 14.4565 43.5813 14.1889 43.3582 13.9635V13.9642ZM10.6024 20.6571C10.1451 20.2158 9.53721 19.9697 8.90508 19.9697C8.27295 19.9697 7.6651 20.2158 7.20774 20.6571L4.68633 23.2058C4.46323 23.4312 4.28624 23.6989 4.16549 23.9935C4.04474 24.2881 3.98259 24.6039 3.98259 24.9228C3.98259 25.2417 4.04474 25.5574 4.16549 25.852C4.28624 26.1466 4.46323 26.4143 4.68633 26.6397L19.864 41.9855C20.3142 42.4407 20.9247 42.6964 21.5613 42.6964C22.198 42.6964 22.8085 42.4407 23.2587 41.9855L25.7801 39.4368C26.0032 39.2114 26.1802 38.9437 26.3009 38.6491C26.4217 38.3545 26.4838 38.0387 26.4838 37.7198C26.4838 37.4009 26.4217 37.0852 26.3009 36.7906C26.1802 36.496 26.0032 36.2283 25.7801 36.0029L10.6024 20.6571ZM41.952 22.079C41.9529 22.3979 41.8912 22.7139 41.7705 23.0087C41.6498 23.3034 41.4725 23.571 41.2488 23.7959L38.7274 26.3447C38.2772 26.7996 37.6666 27.0552 37.0301 27.0552C36.3935 27.0552 35.783 26.7996 35.3327 26.3447L20.1551 10.9981C19.9321 10.7727 19.7552 10.5051 19.6345 10.2106C19.5138 9.91603 19.4517 9.60034 19.4517 9.28152C19.4517 8.96271 19.5138 8.64701 19.6345 8.35248C19.7552 8.05794 19.9321 7.79033 20.1551 7.56494L22.6765 5.01618C23.1338 4.5748 23.7416 4.32853 24.3738 4.32853C25.006 4.32853 25.6139 4.5748 26.0712 5.01618L41.2488 20.3627C41.4725 20.5875 41.6498 20.855 41.7705 21.1496C41.8912 21.4442 41.9529 21.7601 41.952 22.079ZM4.4557 36.9477L3.9832 37.4248C3.7601 37.6502 3.58312 37.9179 3.46237 38.2125C3.34162 38.5071 3.27946 38.8228 3.27946 39.1417C3.27946 39.4606 3.34162 39.7764 3.46237 40.071C3.58312 40.3656 3.7601 40.6333 3.9832 40.8587L5.80149 42.6965C6.25166 43.1516 6.86221 43.4073 7.49883 43.4073C8.13545 43.4073 8.746 43.1516 9.19617 42.6965L9.66867 42.2187L4.4557 36.9477ZM41.4795 10.054L41.952 9.57692C42.1751 9.35151 42.352 9.08386 42.4728 8.78926C42.5935 8.49466 42.6557 8.17888 42.6557 7.85998C42.6557 7.54108 42.5935 7.22531 42.4728 6.9307C42.352 6.6361 42.1751 6.36845 41.952 6.14304L40.1337 4.30524C39.6764 3.86385 39.0685 3.61758 38.4363 3.61758C37.8041 3.61758 37.1963 3.86385 36.739 4.30524L36.2665 4.78299L41.4795 10.054ZM24.1432 17.0412L16.579 24.6896L21.792 29.9605L29.3562 22.3129L24.1432 17.0412Z" fill="#EB3C5A"/>
</svg>
