<svg width="46" height="47" viewBox="0 0 46 47" fill="none" xmlns="http://www.w3.org/2000/svg">
<g clip-path="url(#clip0_54_73)">
<path d="M45.3237 17.7257C45.3237 19.0195 45.1141 20.2959 44.7072 21.5229C42.7958 30.2677 26.2674 40.8464 25.5642 41.2965C25.3492 41.4331 25.1006 41.5058 24.8467 41.5066C24.5913 41.5098 24.3407 41.4367 24.1263 41.2965C23.9372 41.1721 19.2804 38.2007 14.5591 34.1166C14.2896 33.8825 14.1225 33.5501 14.0943 33.192C14.0662 32.8338 14.1792 32.4789 14.4088 32.2047C14.6412 31.9333 14.9697 31.7652 15.3236 31.7365C15.6775 31.7078 16.0284 31.8208 16.3006 32.0513C19.8199 35.0914 23.3766 37.5492 24.8534 38.5395C29.8174 35.2671 40.7761 26.9415 42.1194 20.8012C42.4702 19.7165 42.6287 18.7301 42.6287 17.7287C42.6284 16.016 42.1736 14.3348 41.3118 12.8603C40.4501 11.3859 39.2129 10.1722 37.7293 9.34592C33.8696 7.18042 28.703 8.17895 25.8792 11.6208C25.3718 12.2423 24.3283 12.2423 23.8113 11.6208C20.9788 8.17653 15.8161 7.18574 11.9617 9.34205C10.4763 10.1667 9.23709 11.3795 8.37357 12.8538C7.51006 14.3282 7.05389 16.0099 7.05272 17.7233C7.05272 18.718 7.2193 19.7088 7.52949 20.6657C7.72863 21.5611 8.10967 22.4367 8.59459 23.3452H16.4241L19.1129 17.097C19.3432 16.5622 19.8932 16.2258 20.459 16.2858C20.7399 16.31 21.0059 16.4236 21.2189 16.6104C21.4318 16.7971 21.5808 17.0473 21.6442 17.325L23.6236 25.7866L26.1842 21.5413C26.3036 21.3426 26.4716 21.1784 26.6721 21.0646C26.8726 20.9509 27.0988 20.8913 27.3287 20.8917H32.1879C32.3641 20.8917 32.5386 20.9267 32.7013 20.9949C32.8641 21.0631 33.012 21.163 33.1365 21.289C33.261 21.415 33.3598 21.5646 33.4271 21.7292C33.4944 21.8939 33.5289 22.0703 33.5287 22.2484C33.5284 22.6079 33.387 22.9526 33.1356 23.2068C32.8843 23.4611 32.5435 23.6041 32.1879 23.6046H28.0817L24.2244 30.0111C24.087 30.2409 23.885 30.4242 23.6442 30.5375C23.4033 30.6508 23.1346 30.689 22.8722 30.6474C22.6099 30.6057 22.3657 30.4859 22.1709 30.3034C21.976 30.1209 21.8394 29.8838 21.7783 29.6225L19.9693 21.9149L18.5399 25.2416C18.4362 25.4845 18.2643 25.6913 18.0454 25.8363C17.8265 25.9813 17.5704 26.0581 17.3087 26.0572H1.66503C1.30968 26.0559 0.96925 25.9126 0.717981 25.6585C0.466712 25.4045 0.324992 25.0602 0.32373 24.7009C0.325117 24.3417 0.466877 23.9975 0.718119 23.7435C0.969361 23.4895 1.30972 23.3461 1.66503 23.3447H5.59845C5.31937 22.6715 5.0939 22.018 4.95413 21.3859C4.57979 20.2881 4.3773 19.0098 4.3773 17.7228C4.37775 15.5243 4.962 13.3662 6.06903 11.4739C7.17606 9.58167 8.76527 8.02466 10.6707 6.96551C15.1733 4.44716 21.1316 5.23901 24.8524 8.77429C28.5633 5.23853 34.5172 4.44716 39.0275 6.96551C40.9331 8.02535 42.5226 9.58284 43.6301 11.4755C44.7376 13.3682 45.3224 15.5266 45.3237 17.7257Z" fill="#EB3C5A"/>
</g>
<defs>
<clipPath id="clip0_54_73">
<rect width="45" height="45.5007" fill="white" transform="translate(0.32373 0.750488)"/>
</clipPath>
</defs>
</svg>
