<svg width="46" height="47" viewBox="0 0 46 47" fill="none" xmlns="http://www.w3.org/2000/svg">
<path d="M31.23 2.72279L28.793 13.5464H13.6743C13.5766 13.5475 13.4802 13.569 13.3912 13.6097C13.3022 13.6505 13.2225 13.7095 13.1573 13.783C13.0921 13.8566 13.0427 13.943 13.0123 14.0369C12.9819 14.1308 12.9711 14.2301 12.9807 14.3284C13.9002 23.8139 14.8463 33.2644 15.7871 42.7741C15.8934 43.8489 16.7305 44.8324 17.8865 44.8324H33.3746C34.528 44.8324 35.3651 43.8462 35.4714 42.7741C36.4069 33.2913 37.3423 23.8112 38.2831 14.3284C38.2924 14.2296 38.2811 14.13 38.25 14.0359C38.219 13.9417 38.1688 13.8552 38.1028 13.7818C38.0367 13.7085 37.9562 13.6499 37.8665 13.6098C37.7767 13.5697 37.6796 13.5491 37.5815 13.5491H30.2387L32.4764 3.5961H39.6491C40.6058 3.61759 40.6058 2.15312 39.6491 2.17193H31.8784C31.7262 2.18107 31.5808 2.23959 31.464 2.33881C31.3472 2.43804 31.2652 2.57269 31.23 2.72279ZM8.57188 8.28778L12.7123 12.3614C12.7814 12.3252 12.8523 12.293 12.9249 12.2647V6.47667C12.9249 6.28782 12.9991 6.1067 13.1312 5.97315C13.2633 5.83961 13.4424 5.76459 13.6292 5.76459C13.8159 5.76459 13.9951 5.83961 14.1271 5.97315C14.2592 6.1067 14.3334 6.28782 14.3334 6.47667V12.125H14.7905L18.7104 8.26628C18.7759 8.19735 18.8544 8.14245 18.9413 8.10486C19.0283 8.06728 19.1218 8.04778 19.2163 8.04752C19.3109 8.04726 19.4045 8.06626 19.4916 8.10337C19.5788 8.14048 19.6576 8.19495 19.7235 8.26353C19.7893 8.33211 19.8409 8.4134 19.875 8.50255C19.9091 8.59169 19.9251 8.68688 19.9221 8.78242C19.9191 8.87797 19.8971 8.97192 19.8574 9.05867C19.8176 9.14543 19.7611 9.22321 19.691 9.28738L16.8049 12.1223H21.9366C21.0065 8.46782 17.7537 5.75922 13.7647 5.60605C8.89875 5.57918 5.04799 9.47548 5.04799 14.2585C5.051 16.3366 5.79131 18.3446 7.13436 19.9176C8.47741 21.4906 10.3341 22.5241 12.3668 22.8304C12.1755 20.8903 12.0214 18.9475 11.8327 17.0182L8.59845 20.1997C7.92875 20.9172 6.89232 19.8423 7.61782 19.184L11.652 15.2124L11.628 14.9706H5.90106C4.98421 14.9464 4.98421 13.5679 5.90106 13.5464H11.6945C11.7104 13.4965 11.7281 13.4472 11.7476 13.3987L7.59391 9.30619C7.52777 9.24091 7.475 9.1631 7.43861 9.07719C7.40222 8.99129 7.38291 8.89898 7.3818 8.80554C7.38069 8.71209 7.3978 8.61934 7.43214 8.53258C7.46648 8.44582 7.51738 8.36674 7.58195 8.29987C7.64651 8.233 7.72347 8.17965 7.80842 8.14285C7.89338 8.10605 7.98468 8.08653 8.07709 8.08541C8.16951 8.08429 8.26124 8.10158 8.34705 8.1363C8.43286 8.17103 8.51106 8.2225 8.57719 8.28778H8.57188ZM14.453 14.9679H28.4741C28.219 16.1449 27.9134 17.3541 27.6583 18.523H14.8091L14.453 14.9679ZM29.9198 14.9679H36.8029L36.4521 18.523H29.1199L29.9198 14.9679ZM17.1265 42.0405L34.132 42.0082L34.0682 42.637C34.0231 43.1207 33.7679 43.4082 33.3746 43.4082H17.8839C17.4906 43.4082 17.2381 43.118 17.1876 42.629L17.1265 42.0405Z" fill="#EB3C5A"/>
</svg>
