<svg width="80" height="81" viewBox="0 0 80 81" fill="none" xmlns="http://www.w3.org/2000/svg">
<g clip-path="url(#clip0_41_5)">
<path fill-rule="evenodd" clip-rule="evenodd" d="M40 76.3205C59.8822 76.3205 76.0001 60.2964 76.0001 40.5289C76.0001 20.7618 59.8826 4.73731 40 4.73731C20.1178 4.73731 3.99992 20.7618 3.99992 40.5289C3.99992 60.296 20.1178 76.3205 40 76.3205ZM40 80.2972C62.0911 80.2972 80 62.4921 80 40.5289C80 18.5653 62.0911 0.760559 40 0.760559C17.9084 0.760559 0 18.5653 0 40.5289C0 62.4921 17.9084 80.2972 40 80.2972Z" fill="#EB3C5A"/>
<path fill-rule="evenodd" clip-rule="evenodd" d="M50.3941 40.5289L31.9998 28.3372V52.721L50.3941 40.5289ZM54.1103 38.2128C55.773 39.3148 55.773 41.7434 54.1103 42.8454L32.3526 57.2668C30.492 58.5002 27.9994 57.1737 27.9994 54.9503V26.1079C27.9994 23.8845 30.492 22.5584 32.3526 23.7918L54.1103 38.2128Z" fill="#EB3C5A"/>
</g>
<defs>
<clipPath id="clip0_41_5">
<rect width="80" height="79.5367" fill="white" transform="translate(0 0.760559)"/>
</clipPath>
</defs>
</svg>
