<svg width="41" height="41" viewBox="0 0 41 41" fill="none" xmlns="http://www.w3.org/2000/svg">
<g clip-path="url(#clip0_53_17)">
<path d="M23.5355 24.9579L20.8659 21.9188L18.0423 24.7275C17.8435 24.9259 17.6084 25.0832 17.35 25.1906C17.2477 25.2505 17.1311 25.315 16.9858 25.392C16.9469 25.4126 16.9052 25.4336 16.8644 25.4546L20.714 25.3258L22.9343 26.7048C23.0048 26.5822 23.0527 26.4951 23.0712 26.4542L23.5355 24.9579ZM27.2274 25.5597C27.3566 25.6979 27.4288 25.8807 27.4292 26.0709C27.4292 26.1445 27.4153 26.2145 27.3957 26.2817L29.3487 27.7236C29.3798 27.7465 29.406 27.7753 29.426 27.8085C29.446 27.8416 29.4594 27.8785 29.4653 27.9168C29.4712 27.9552 29.4696 27.9944 29.4606 28.0321C29.4515 28.0699 29.4352 28.1054 29.4126 28.1368C29.3899 28.1682 29.3614 28.1947 29.3286 28.2149C29.2958 28.2352 29.2594 28.2487 29.2215 28.2546C29.1835 28.2606 29.1448 28.259 29.1074 28.2499C29.0701 28.2407 29.0349 28.2242 29.0039 28.2013L27.0211 26.7376C26.9177 26.7922 26.803 26.8211 26.6865 26.8219H26.0926C25.8586 27.2815 25.7367 27.7909 25.7371 28.3078C25.7371 30.1069 27.1847 31.5706 28.9641 31.5706C30.7434 31.5706 32.191 30.1069 32.191 28.3078C32.191 26.5086 30.7434 25.0449 28.9641 25.0449C28.3483 25.0443 27.7454 25.223 27.2274 25.5597Z" fill="#EB3C5A"/>
<path d="M38.9252 32.9355H35.2692L34.4691 30.3165C34.699 29.6722 34.8163 28.9924 34.8157 28.3075C34.8172 27.0827 34.4409 25.888 33.7393 24.8897L32.5332 20.5785C32.288 19.7031 31.818 18.9089 31.1709 18.2766L27.2246 14.4239C27.1951 14.3952 27.1626 14.3696 27.1277 14.3478L28.9295 10.726C28.9968 10.5861 29.007 10.4251 28.9578 10.2777C28.9086 10.1303 28.8039 10.0085 28.6665 9.93862C28.529 9.86871 28.3699 9.85636 28.2236 9.90423C28.0772 9.9521 27.9554 10.0563 27.8845 10.1944L24.781 16.4327C24.7136 16.5725 24.7035 16.7336 24.7527 16.8809C24.8019 17.0283 24.9066 17.1501 25.044 17.22C25.1814 17.2899 25.3406 17.3023 25.4869 17.2544C25.6333 17.2065 25.7551 17.1023 25.826 16.9643L26.5832 15.4421L30.3582 19.1275C30.8567 19.6146 31.2187 20.2263 31.4076 20.9006L32.0787 23.2994C32.0156 23.2592 31.9518 23.2204 31.8872 23.1827C31.8616 23.1641 31.8364 23.1447 31.8098 23.1274L31.0314 22.6213L30.6238 22.3562C30.3984 22.2096 30.1446 22.1134 29.8795 22.0739L26.5977 21.5856C26.5146 21.5738 26.4308 21.5677 26.3469 21.5673L26.7738 22.0533C26.9632 22.2678 27.1086 22.5181 27.2017 22.7897C27.2948 23.0614 27.3337 23.349 27.3162 23.636C27.3077 23.7803 27.2855 23.9215 27.2505 24.0584C27.7943 23.8331 28.3765 23.7174 28.9641 23.7177C31.467 23.7177 33.5034 25.7768 33.5034 28.3076C33.5034 30.8385 31.467 32.8974 28.9641 32.8974C26.4611 32.8974 24.4248 30.8383 24.4248 28.3076C24.4248 27.7876 24.5119 27.2881 24.6703 26.8217H24.5807C24.3837 26.8215 24.1949 26.7423 24.0557 26.6015C23.9164 26.4607 23.8381 26.2698 23.8379 26.0707C23.8379 25.8122 23.9678 25.5838 24.165 25.4486C24.0388 25.3829 23.9193 25.3048 23.8082 25.2153L23.5283 26.1173C23.4583 26.2947 23.3967 26.4762 23.3438 26.6616C23.2053 26.9232 22.7704 27.6462 22.2306 28.5281C21.3034 30.0433 20.0685 32.025 19.4999 32.9355H11.7143L11.3259 32.0519C11.0182 31.353 10.5168 30.7592 9.88245 30.3424C9.24807 29.9255 8.50783 29.7034 7.75125 29.7029H6.48658L6.44885 29.5907C6.05503 28.4175 6.58602 27.1185 7.68383 26.5689L10.2894 25.2645L11.1788 27.7935C11.2243 27.923 11.3131 28.0324 11.4297 28.103C11.5464 28.1735 11.6837 28.2007 11.8181 28.18L13.5835 27.9075C13.6785 27.9869 13.789 28.0452 13.9078 28.0784C14.0265 28.1116 14.1509 28.1191 14.2727 28.1003L17.9615 27.5307C18.0759 27.5138 18.186 27.4742 18.2853 27.414C18.3845 27.3539 18.4711 27.2746 18.5399 27.1805C18.6087 27.0865 18.6584 26.9796 18.6862 26.866C18.714 26.7525 18.7193 26.6345 18.7018 26.5188C18.6844 26.4032 18.6444 26.2922 18.5844 26.1922C18.5243 26.0922 18.4452 26.0052 18.3518 25.9363C18.2583 25.8673 18.1523 25.8177 18.0398 25.7903C17.9273 25.7629 17.8106 25.7583 17.6963 25.7768L14.0076 26.3463C13.8858 26.3651 13.7692 26.4098 13.6656 26.4773C13.5621 26.5449 13.4738 26.6338 13.4066 26.7383L12.1191 26.9371L11.2161 24.3692C11.2095 24.2996 11.1907 24.2317 11.1605 24.1687C11.1507 24.1488 11.1377 24.1316 11.126 24.1131L10.6352 22.7177C10.6944 22.6084 10.7301 22.4876 10.7399 22.3634C10.7497 22.2391 10.7334 22.1142 10.6921 21.9967L8.88869 16.8683C8.81071 16.6466 8.64882 16.4653 8.43864 16.3643C8.22845 16.2632 7.98719 16.2508 7.76792 16.3296C7.54865 16.4085 7.36933 16.5722 7.26942 16.7847C7.16951 16.9972 7.15719 17.2412 7.23517 17.4629L9.03887 22.5916C9.08022 22.7086 9.14556 22.8155 9.23062 22.9053C9.31567 22.995 9.41852 23.0656 9.53243 23.1124L9.89466 24.1425L7.16498 25.509C5.54348 26.3206 4.7595 28.2389 5.34124 29.9713L6.33697 32.9357H1.58496C0.850402 32.9357 0.255066 33.5378 0.255066 34.2805C0.255349 34.6254 0.386651 34.957 0.621839 35.2067C0.857026 35.4565 1.17812 35.6054 1.51877 35.6226C1.85942 35.6398 2.19359 35.524 2.45221 35.2991C2.71084 35.0743 2.87416 34.7576 2.90842 34.4145H37.6019C37.6361 34.7576 37.7994 35.0743 38.0581 35.2991C38.3167 35.524 38.6509 35.6398 38.9915 35.6226C39.3322 35.6054 39.6533 35.4565 39.8884 35.2067C40.1236 34.957 40.2549 34.6254 40.2552 34.2805C40.2552 33.9238 40.115 33.5818 39.8656 33.3296C39.6162 33.0773 39.2779 32.9356 38.9252 32.9355ZM6.78476 30.5902H7.75139C8.3383 30.5906 8.91253 30.7629 9.40464 31.0863C9.89676 31.4096 10.2857 31.8702 10.5244 32.4124L10.7544 32.9357H7.57254L6.78476 30.5902ZM9.96383 9.0286C10.1418 10.8573 11.7522 12.1937 13.5607 12.0137C15.3694 11.8338 16.6909 10.2055 16.513 8.37696C16.3349 6.54831 14.7248 5.2119 12.9161 5.39185C11.1077 5.5718 9.78571 7.19995 9.96383 9.0286Z" fill="#EB3C5A"/>
<path d="M26.6863 26.4818C26.9098 26.4818 27.0927 26.297 27.0927 26.0709C27.0927 25.8448 26.9099 25.6599 26.6863 25.6599H25.5407C25.4146 25.683 25.2861 25.6951 25.1562 25.6951C25.0312 25.6951 24.9079 25.6814 24.7864 25.6599H24.5805C24.3571 25.6599 24.1741 25.8448 24.1741 26.0709C24.1741 26.297 24.3569 26.4818 24.5805 26.4818H26.6863ZM25.1562 25.355C25.5879 25.355 26.0214 25.2013 26.3694 24.8887C27.1243 24.2109 27.1928 23.0426 26.5223 22.2793L22.3384 17.5165C22.1738 17.3292 21.9732 17.1776 21.7488 17.071C21.5244 16.9645 21.2809 16.9052 21.0332 16.8968C20.7854 16.8879 20.5384 16.9303 20.3073 17.0214C20.0763 17.1125 19.866 17.2503 19.6896 17.4265L18.8031 18.3084C18.9005 18.2887 18.999 18.2763 19.0976 18.2763C19.7928 18.2763 20.394 18.7536 20.5597 19.437C20.7574 20.2528 20.2618 21.0789 19.4551 21.2787L13.8767 22.6608C13.6797 22.7097 13.4749 22.7179 13.2747 22.6847C13.0745 22.6516 12.883 22.5779 12.7117 22.468C12.5406 22.3578 12.3933 22.214 12.2782 22.0451C12.1632 21.8763 12.0829 21.6858 12.042 21.485L11.0169 16.3857C10.8515 15.5628 11.3791 14.7571 12.1929 14.5897C12.2919 14.5693 12.3927 14.559 12.4938 14.5589C13.2064 14.5589 13.8269 15.0719 13.9692 15.7787L14.6822 19.3248L15.8915 19.0252C15.4061 17.6518 15.057 16.2671 14.7466 15.1618C14.4615 13.658 13.183 12.3392 11.9291 12.6302C10.6753 12.9216 9.36894 14.3615 9.68247 16.6291C10.1317 19.7441 10.8111 21.5734 12.62 24.3286C14.0945 26.2412 15.6427 25.7201 16.8297 25.0908C16.9553 25.0249 17.0794 24.9561 17.2019 24.8844C17.4279 24.7933 17.6335 24.6575 17.8067 24.4849L20.8826 21.4252L23.7891 24.7339C23.9603 24.9295 24.1708 25.0861 24.4066 25.1932C24.6423 25.3003 24.8978 25.3555 25.1562 25.355Z" fill="#EB3C5A"/>
<path d="M14.4222 19.7396L13.6394 15.8467C13.6088 15.6945 13.5488 15.5498 13.4629 15.421C13.377 15.2922 13.2669 15.1818 13.1387 15.096C13.0106 15.0102 12.8671 14.9508 12.7163 14.9212C12.5654 14.8915 12.4103 14.8922 12.2598 14.9231C12.1092 14.9541 11.9661 15.0147 11.8388 15.1016C11.7114 15.1884 11.6022 15.2998 11.5173 15.4293C11.4325 15.5589 11.3738 15.704 11.3444 15.8565C11.3151 16.009 11.3158 16.1659 11.3464 16.3181L12.3716 21.4171C12.403 21.5732 12.4653 21.7213 12.5547 21.8525C12.644 21.9837 12.7587 22.0952 12.8918 22.1805C13.0249 22.2658 13.1736 22.323 13.3291 22.3488C13.4845 22.3745 13.6436 22.3682 13.7966 22.3303L19.3751 20.9482C19.5244 20.9112 19.6649 20.8449 19.7888 20.753C19.9126 20.6611 20.0174 20.5454 20.097 20.4126C20.1767 20.2797 20.2297 20.1323 20.253 19.9788C20.2763 19.8253 20.2695 19.6686 20.2329 19.5177C20.1963 19.3668 20.1307 19.2247 20.0398 19.0995C19.9489 18.9742 19.8345 18.8683 19.7032 18.7878C19.5718 18.7072 19.426 18.6536 19.2742 18.6301C19.1223 18.6065 18.9673 18.6134 18.8181 18.6504L14.4222 19.7396Z" fill="#EB3C5A"/>
</g>
<defs>
<clipPath id="clip0_53_17">
<rect width="40" height="40.4451" fill="white" transform="translate(0.255066 0.277954)"/>
</clipPath>
</defs>
</svg>
